HIERARCHY
ROOT SpineBase
{
  OFFSET 0.000000 0.000000 0.000000
  CHANNELS 6 Xposition Yposition Zposition Zrotation Xrotation Yrotation
  JOINT SpineMid
  {
    OFFSET 0.000000 25.614999 0.000000
    CHANNELS 3 Zrotation Xrotation Yrotation
    JOINT SpineShoulder
    {
      OFFSET -0.099809 19.291043 -0.617632
      CHANNELS 3 Zrotation Xrotation Yrotation
      JOINT Neck
      {
        OFFSET -0.019177 6.472726 -0.498327
        CHANNELS 3 Zrotation Xrotation Yrotation
        JOINT Head
        {
          OFFSET 0.977215 14.238450 0.340687
          CHANNELS 3 Zrotation Xrotation Yrotation
          End Site
          {
            OFFSET 0 0 0
          }
        }
      }
      JOINT ShoulderLeft
      {
        OFFSET -8.245827 -2.024123 -10.730869
        CHANNELS 3 Zrotation Xrotation Yrotation
        JOINT ElbowLeft
        {
          OFFSET 1.099561 -20.400375 -7.011434
          CHANNELS 3 Zrotation Xrotation Yrotation
          JOINT WristLeft
          {
            OFFSET 14.960081 -11.135064 -8.969355
            CHANNELS 3 Zrotation Xrotation Yrotation
            JOINT HandLeft
            {
              OFFSET 0.951794 -1.872462 -3.114044
              CHANNELS 3 Zrotation Xrotation Yrotation
              JOINT HandTipLeft
              {
                OFFSET 2.303958 -1.792491 -4.825956
                CHANNELS 3 Zrotation Xrotation Yrotation
                End Site
                {
                  OFFSET 0 0 0
                }
              }
              JOINT ThumbLeft
              {
                OFFSET 2.742544 3.858096 -2.936908
                CHANNELS 3 Zrotation Xrotation Yrotation
                End Site
                {
                  OFFSET 0 0 0
                }
              }
            }
          }
        }
      }
      JOINT ShoulderRight
      {
        OFFSET 15.011769 -2.317345 9.883617
        CHANNELS 3 Zrotation Xrotation Yrotation
        JOINT ElbowRight
        {
          OFFSET 10.195983 -16.085394 4.642732
          CHANNELS 3 Zrotation Xrotation Yrotation
          JOINT WristRight
          {
            OFFSET 12.710866 -16.599263 -19.540667
            CHANNELS 3 Zrotation Xrotation Yrotation
            JOINT HandRight
            {
              OFFSET 3.686085 -4.565028 -5.526174
              CHANNELS 3 Zrotation Xrotation Yrotation
              JOINT HandTipRight
              {
                OFFSET 3.984175 -4.199518 -3.288554
                CHANNELS 3 Zrotation Xrotation Yrotation
                End Site
                {
                  OFFSET 0 0 0
                }
              }
              JOINT ThumbRight
              {
                OFFSET -2.926094 -1.808087 -1.387353
                CHANNELS 3 Zrotation Xrotation Yrotation
                End Site
                {
                  OFFSET 0 0 0
                }
              }
            }
          }
        }
      }
    }
  }
  JOINT HipLeft
  {
    OFFSET -5.089267 1.997384 -7.108834
    CHANNELS 3 Zrotation Xrotation Yrotation
    JOINT KneeLeft
    {
      OFFSET 22.847129 5.141221 -28.062138
      CHANNELS 3 Zrotation Xrotation Yrotation
      JOINT AnkleLeft
      {
        OFFSET 11.132126 -32.890538 -0.910754
        CHANNELS 3 Zrotation Xrotation Yrotation
        JOINT FootLeft
        {
          OFFSET 7.563662 -1.457662 -10.425961
          CHANNELS 3 Zrotation Xrotation Yrotation
          End Site
          {
            OFFSET 0 0 0
          }
        }
      }
    }
  }
  JOINT HipRight
  {
    OFFSET 5.847359 0.951930 0.899430
    CHANNELS 3 Zrotation Xrotation Yrotation
    JOINT KneeRight
    {
      OFFSET 34.892503 7.035891 -6.312421
      CHANNELS 3 Zrotation Xrotation Yrotation
      JOINT AnkleRight
      {
        OFFSET 5.804045 -31.459229 -13.016132
        CHANNELS 3 Zrotation Xrotation Yrotation
        JOINT FootRight
        {
          OFFSET 7.408809 -1.537074 -10.477899
          CHANNELS 3 Zrotation Xrotation Yrotation
          End Site
          {
            OFFSET 0 0 0
          }
        }
      }
    }
  }
}
MOTION
Frames: 12
Frame Time: 0.033333
-47.250986 31.706846 362.884870 -0.000000 0.000000 -36.213178 0.000000 0.000000 36.213178 -0.000000 0.000000 0.000000 -0.000000 0.000000 0.000000 0.000000 0.000000 0.000000 -0.000000 0.000000 0.000000 -0.000000 0.000000 0.000000 -0.000000 0.000000 0.000000 -0.000000 0.000000 0.000000 0.000000 0.000000 0.000000 0.000000 0.000000 0.000000 -0.000000 0.000000 0.000000 -0.000000 0.000000 0.000000 -0.000000 0.000000 0.000000 -0.000000 0.000000 0.000000 0.000000 0.000000 0.000000 0.000000 0.000000 0.000000 0.000000 0.000000 36.213178 -0.000000 0.000000 0.000000 -0.000000 0.000000 0.000000 0.000000 0.000000 0.000000 0.000000 0.000000 36.213178 -0.000000 0.000000 0.000000 -0.000000 0.000000 0.000000 0.000000 0.000000 0.000000
-47.248420 31.710344 362.839539 0.035001 -0.016150 -36.298935 -0.037769 -0.007705 36.298938 -0.000000 0.000000 0.000000 -0.000000 0.000000 0.000000 0.000000 0.000000 0.000000 -0.000000 0.000000 0.000000 -0.801080 -0.784142 -0.419975 -0.553319 2.559092 3.511520 0.006117 -2.961819 -1.390420 0.000000 0.000000 0.000000 0.000000 0.000000 0.000000 -0.000000 0.000000 0.000000 0.549681 -1.101351 -1.496542 -0.629728 3.251562 3.212079 -1.977741 -6.047784 -4.285921 0.000000 0.000000 0.000000 0.000000 0.000000 0.000000 -0.037769 -0.007705 36.298938 -0.000000 0.000000 0.000000 -0.000000 0.000000 0.000000 0.000000 0.000000 0.000000 -0.037769 -0.007705 36.298938 -0.000000 0.000000 0.000000 -0.000000 0.000000 0.000000 0.000000 0.000000 0.000000
-47.251041 31.708626 362.805064 0.061420 -0.043822 -36.336350 -0.075443 -0.001092 36.336372 -0.000000 0.000000 0.000000 -0.389271 -0.931582 0.070085 0.000000 0.000000 0.000000 -1.146248 0.627632 0.433492 -0.230065 -2.006757 -1.231763 -0.862911 4.030835 5.680210 -0.149207 -4.806195 -2.336990 0.000000 0.000000 0.000000 0.000000 0.000000 0.000000 -0.000000 0.000000 0.000000 1.047903 -1.784635 -2.613163 -1.198696 5.378257 5.367081 -3.387347 -9.570779 -6.921042 0.000000 0.000000 0.000000 0.000000 0.000000 0.000000 -0.014816 1.343750 36.293460 -0.845004 -1.048009 0.034473 -0.000000 0.000000 0.000000 0.000000 0.000000 0.000000 -0.075443 -0.001092 36.336372 -0.000000 0.000000 0.000000 -0.000000 0.000000 0.000000 0.000000 0.000000 0.000000
-47.258851 31.701690 362.781445 0.079253 -0.083032 -36.325397 -0.113037 0.019949 36.325474 -0.000000 0.000000 0.000000 -0.582030 -1.394766 0.102566 0.000000 0.000000 0.000000 -1.571257 0.856292 0.596860 -0.133230 -2.647779 -1.719396 -0.882642 4.536729 6.556447 -0.174363 -5.509840 -3.068404 0.000000 0.000000 0.000000 0.000000 0.000000 0.000000 -0.000000 0.000000 0.000000 1.509118 -2.020222 -3.331795 -1.579407 6.501788 6.527324 -4.228069 -11.410548 -8.217453 0.000000 0.000000 0.000000 0.000000 0.000000 0.000000 -0.029865 1.668496 36.338168 -1.044026 -1.278599 -0.025569 -0.000000 0.000000 0.000000 0.000000 0.000000 0.000000 -0.113037 0.019949 36.325474 -0.000000 0.000000 0.000000 -0.000000 0.000000 0.000000 0.000000 0.000000 0.000000
-47.271847 31.689537 362.768684 0.088490 -0.133794 -36.266116 -0.150492 0.055530 36.266292 -0.000000 0.000000 0.000000 -0.773854 -1.856875 0.133418 0.000000 0.000000 0.000000 -1.890495 1.025930 0.720446 0.106179 -3.049871 -2.108633 -0.605908 4.127796 6.171611 0.045458 -5.051420 -3.641568 0.000000 0.000000 0.000000 0.000000 0.000000 0.000000 -0.000000 0.000000 0.000000 1.940194 -1.785361 -3.639580 -1.687991 6.678957 6.699991 -4.510116 -11.906120 -8.292882 0.000000 0.000000 0.000000 0.000000 0.000000 0.000000 -0.049130 1.758660 36.386429 -1.092146 -1.310858 -0.134236 -0.000000 0.000000 0.000000 0.000000 0.000000 0.000000 -0.150492 0.055530 36.266292 -0.000000 0.000000 0.000000 -0.000000 0.000000 0.000000 0.000000 0.000000 0.000000
-47.290032 31.672167 362.766778 0.089124 -0.196127 -36.158608 -0.187678 0.105765 36.158934 -0.000000 0.000000 0.000000 -0.964978 -2.318406 0.162687 0.000000 0.000000 0.000000 -2.100285 1.135467 0.801996 0.488808 -3.214100 -2.394769 -0.054845 2.785111 4.532604 0.432818 -3.415800 -3.938672 0.000000 0.000000 0.000000 0.000000 0.000000 0.000000 -0.000000 0.000000 0.000000 2.338499 -1.063340 -3.528116 -1.471191 5.904497 5.853186 -4.223906 -11.066056 -7.119322 0.000000 0.000000 0.000000 0.000000 0.000000 0.000000 -0.072554 1.613692 36.438255 -0.988400 -1.144679 -0.290923 -0.000000 0.000000 0.000000 0.000000 0.000000 0.000000 -0.187678 0.105765 36.158934 -0.000000 0.000000 0.000000 -0.000000 0.000000 0.000000 0.000000 0.000000 0.000000
-47.283611 31.659227 362.774300 0.100294 -0.302482 -35.990028 -0.258903 0.185805 35.990713 -0.000000 0.000000 0.000000 -1.114430 -2.557198 0.177303 0.000000 0.000000 0.000000 -2.455853 1.302182 0.939682 0.906819 -3.452684 -2.670071 1.428653 2.179284 1.695711 -0.564024 -3.673440 -3.550768 0.000000 0.000000 0.000000 0.000000 0.000000 0.000000 -0.000000 0.000000 0.000000 3.012105 0.754341 -2.907159 -0.452990 4.573323 3.664397 -3.535068 -8.812127 -4.060318 0.000000 0.000000 0.000000 0.000000 0.000000 0.000000 -0.118380 1.637161 36.454249 -1.113528 -0.304563 -0.209255 0.140841 -0.778740 -0.266458 0.000000 0.000000 0.000000 -0.258903 0.185805 35.990713 -0.000000 0.000000 0.000000 -0.000000 0.000000 0.000000 0.000000 0.000000 0.000000
-47.307511 31.636439 362.796289 0.100873 -0.402683 -35.767469 -0.317217 0.267773 35.768565 -0.000000 0.000000 0.000000 -1.309871 -2.898688 0.197150 0.000000 0.000000 0.000000 -2.291534 1.262946 0.878621 -0.927223 -3.920570 -2.085461 0.978088 -7.340841 -0.558108 2.607523 6.745078 -4.762260 0.000000 0.000000 0.000000 0.000000 0.000000 0.000000 0.315439 -0.708454 -0.354821 3.003897 3.240952 -1.664122 0.553862 1.554712 0.470365 -1.490019 -3.517744 0.137490 0.000000 0.000000 0.000000 0.000000 0.000000 0.000000 -0.165234 1.039996 36.551448 -0.582002 -0.529818 -0.787308 -0.000000 0.000000 0.000000 0.000000 0.000000 0.000000 -0.317217 0.267773 35.768565 -0.000000 0.000000 0.000000 -0.000000 0.000000 0.000000 0.000000 0.000000 0.000000
-47.516096 31.670597 362.836825 -0.138788 -0.504558 -35.561418 -0.180538 0.491170 35.561581 -0.715023 -0.678152 -0.061263 -0.917310 -2.702179 0.295052 0.000000 0.000000 0.000000 -1.210021 1.798155 0.813918 0.443982 -2.943086 -2.071056 0.345106 -12.736796 -5.390343 2.743011 14.050975 -2.923183 0.000000 0.000000 0.000000 0.000000 0.000000 0.000000 0.714348 0.678864 0.052800 3.280929 3.679823 -1.085136 0.855102 -2.954368 -3.098835 -0.079334 4.332587 5.378290 0.000000 0.000000 0.000000 0.000000 0.000000 0.000000 -0.074562 -0.064227 36.518189 0.245343 0.509415 -0.958093 1.101241 1.490649 -0.136456 0.000000 0.000000 0.000000 -0.024602 0.410731 36.408317 -0.077750 0.157289 -0.847856 0.574092 0.982914 0.756873 0.000000 0.000000 0.000000
-47.593180 31.591805 362.874143 -0.140777 -0.562860 -35.363844 -0.313074 -0.325565 35.342279 -0.227091 -0.074595 -0.041783 -1.173002 -3.492081 0.348258 0.000000 0.000000 0.000000 -0.593171 1.717322 0.623891 4.455467 -0.778902 -2.516893 1.736312 -12.811505 -13.543480 -1.714230 14.414339 1.721443 0.000000 0.000000 0.000000 0.000000 0.000000 0.000000 0.918511 1.473081 0.565032 2.699713 0.226235 -2.961623 0.674687 -11.824952 -10.730367 0.721686 21.839667 15.077633 0.000000 0.000000 0.000000 0.000000 0.000000 0.000000 -0.154976 -1.529972 36.567977 2.027419 1.404739 -1.359233 -0.097728 1.291558 0.041103 0.000000 0.000000 0.000000 -0.341428 0.066671 36.542775 1.096173 -0.386871 -1.602800 -1.182988 0.126386 0.985046 0.000000 0.000000 0.000000
-47.506957 31.406628 362.907612 0.087352 -0.550735 -35.253153 -0.389219 0.399312 35.254929 -0.716013 -0.666531 -0.061239 -1.847362 -4.877956 0.400698 0.000000 0.000000 0.000000 -0.077284 1.211783 0.367117 10.429834 2.420233 -3.710449 3.651818 -9.570447 -20.783445 -6.666017 8.107210 5.943407 0.000000 0.000000 0.000000 0.000000 0.000000 0.000000 0.310970 3.068508 1.484360 2.640526 -0.106018 -2.161203 -3.619908 -18.755875 -13.401660 2.951200 33.499186 18.804550 0.000000 0.000000 0.000000 0.000000 0.000000 0.000000 -0.347085 -3.169591 36.899651 3.460219 1.848631 -2.123899 -3.661101 -1.965200 2.067756 0.000000 0.000000 0.000000 -0.784183 -0.451347 36.779799 1.626379 -0.339504 -2.010227 -2.068699 -0.963649 0.865694 0.000000 0.000000 0.000000
-47.342046 31.190860 362.880944 0.443929 -0.440754 -35.413950 -0.617203 0.101950 35.416207 -0.000000 0.000000 0.000000 -3.332703 -7.092946 0.360397 0.000000 0.000000 0.000000 -0.000000 0.000000 0.000000 17.250858 6.029436 -5.459546 9.247838 0.274218 -28.786424 -10.062470 -9.381582 8.222245 0.000000 0.000000 0.000000 0.000000 0.000000 0.000000 -0.273609 4.574925 2.870231 1.882149 2.472472 0.609399 -5.533757 -22.970854 -17.045599 2.615651 40.147315 23.298853 0.000000 0.000000 0.000000 0.000000 0.000000 0.000000 -0.582005 -4.912067 37.365810 4.851948 2.446116 -2.710543 -5.294556 -3.044218 2.912702 0.000000 0.000000 0.000000 -1.251745 -1.090705 37.220329 1.958924 -0.233806 -2.274943 -2.555989 -1.750235 0.807367 0.000000 0.000000 0.000000
